<svg width="1248" height="280" viewBox="0 0 1248 280" fill="none" xmlns="http://www.w3.org/2000/svg">
<path d="M89.0037 260.049C79.2186 259.654 70.0017 257.092 61.2278 252.335C52.271 247.423 43.892 241.249 36.0523 233.708C27.943 226.215 20.6716 217.798 14.2766 208.475C7.98752 199.181 3.23943 189.82 0.61016 180.901C-0.690029 172.725 0.13824 165.27 2.61341 158.105C5.05969 150.872 8.79653 144.246 13.718 138.082C18.3698 131.562 24.1099 125.764 30.9672 120.813C37.7378 115.41 45.9723 111.751 55.6707 110.027C65.5233 108.264 74.432 109.025 82.5124 112.319C90.5543 115.536 97.6909 120.496 103.903 127.208C110.279 134.017 115.614 142.002 119.91 151.218C124.234 160.503 127.374 170.182 129.3 180.256C131.438 190.311 132.353 200.202 131.997 209.9C131.717 219.57 130.022 228.247 126.921 235.866C123.82 243.455 119.139 249.542 112.889 254.107C106.696 258.431 98.7599 260.415 89.0037 260.049ZM56.239 113.6C49.3431 114.794 43.5356 117.808 38.7683 122.576C34.0202 127.151 30.187 132.669 27.2496 139.103C24.2832 145.315 22.1933 152.124 21.1435 159.597C20.2767 166.984 20.6234 174.68 22.3378 182.808C24.6588 191.235 28.1838 199.768 32.8067 208.417C37.6318 217.008 43.0926 224.828 49.0542 231.849C55.0351 238.909 61.2856 244.688 67.8829 249.166C74.4705 253.644 81.1737 256.023 87.9924 256.293C95.601 256.534 101.553 254.579 105.877 250.37C110.211 246.123 113.206 240.383 114.863 233.236C116.703 226.042 117.29 217.961 116.751 208.976C116.202 199.836 114.767 190.58 112.475 181.248C110.23 171.983 107.206 163.016 103.392 154.416C99.7327 145.71 95.4372 138.091 90.5061 131.619C85.7195 125.167 80.3839 120.264 74.5379 116.913C68.8074 113.571 62.7495 112.492 56.239 113.6ZM174.778 246.595C175.876 251.651 177.754 255.022 180.383 256.697C183.137 258.2 186.046 258.999 189.147 259.105C193.173 259.202 197.574 259.394 202.293 259.741C207.157 259.866 211.944 259.885 216.74 259.847C221.7 259.751 226.361 259.5 230.849 259.038C235.27 258.585 239.142 257.805 242.397 256.726C245.749 255.436 248.291 253.741 250.034 251.651C251.845 249.339 252.49 246.412 251.912 242.887C251.739 241.923 252.192 241.432 253.251 241.432C254.455 241.452 255.158 241.933 255.351 242.906C255.996 246.354 256.689 249.802 257.354 253.211C257.932 256.187 258.269 258.527 258.356 260.319C258.529 261.85 258.279 263.044 257.633 263.824C257.113 264.566 256.208 265.038 254.908 265.211C253.733 265.336 252.067 265.404 249.928 265.336C217.626 264.373 185.304 263.333 152.954 262.322C152.154 262.293 151.596 261.629 151.326 260.425C151.133 258.999 151.384 258.306 152.048 258.315C153.522 258.383 154.764 257.256 155.727 254.993C156.768 252.566 156.989 249.917 156.353 247.105C146.588 202.099 137.428 157.267 128.828 112.694C128.337 109.901 127.085 107.494 125.072 105.519C123.175 103.343 121.489 102.399 119.987 102.64C119.341 102.765 118.841 102.225 118.484 101.05C118.234 99.6636 118.494 98.8835 119.332 98.7487C130.167 96.755 141.021 94.7807 151.846 92.7967C152.395 92.6907 152.78 93.3649 153.05 94.8096C153.387 96.0616 153.214 96.7261 152.559 96.8706C150.7 97.1788 149.246 98.8257 148.263 101.802C147.223 104.556 146.982 107.426 147.531 110.47C156.132 155.697 165.204 201.059 174.778 246.595ZM287.576 247.972C288.674 253.664 290.523 257.449 293.153 259.307C295.878 261.012 298.777 261.889 301.869 261.975C305.894 262.062 310.248 262.274 314.996 262.601C319.84 262.707 324.636 262.726 329.442 262.659C334.354 262.543 339.044 262.235 343.475 261.696C347.924 261.176 351.777 260.29 355.022 259.076C358.374 257.622 360.897 255.686 362.631 253.317C364.432 250.755 365.067 247.481 364.509 243.513C364.307 242.405 364.75 241.885 365.809 241.875C367.032 241.875 367.726 242.434 367.928 243.532C368.602 247.394 369.276 251.217 369.941 255.089C370.528 258.393 370.865 261.022 370.952 263.015C371.106 264.759 370.885 266.059 370.249 266.906C369.748 267.764 368.833 268.303 367.533 268.486C366.358 268.65 364.711 268.727 362.563 268.659C330.29 267.715 298.026 266.772 265.762 265.799C264.934 265.799 264.404 265.086 264.134 263.699C263.961 262.091 264.211 261.33 264.885 261.34C266.34 261.388 267.582 260.107 268.545 257.584C269.634 254.81 269.865 251.843 269.258 248.675C259.588 197.197 250.275 145.748 241.27 94.2799C240.74 91.092 239.46 88.3375 237.427 86.0261C235.492 83.5124 233.777 82.3566 232.323 82.6167C231.639 82.7611 231.138 82.1159 230.772 80.7675C230.493 79.1688 230.772 78.3213 231.562 78.1672C242.387 76.1735 253.213 74.1895 264.019 72.1959C264.568 72.1092 264.963 72.8701 265.232 74.5459C265.579 75.952 265.444 76.7129 264.77 76.8188C262.921 77.1463 261.486 79.0051 260.523 82.3278C259.511 85.4097 259.28 88.7035 259.868 92.161C268.786 144.111 278.041 196.061 287.576 247.972ZM354.598 75.6535C354.069 72.0611 352.778 68.9503 350.727 66.2921C348.781 63.4317 347.077 62.1315 345.622 62.4012C344.939 62.4975 344.418 61.8137 344.072 60.292C343.773 58.4813 344.072 57.5086 344.852 57.3545C355.668 55.3802 366.493 53.3865 377.299 51.4122C377.819 51.3062 378.243 52.1923 378.493 54.0607C378.859 55.6306 378.724 56.4685 378.05 56.584C376.182 56.9404 374.766 58.9436 373.812 62.6227C372.791 66.0995 372.589 69.7593 373.177 73.6406C382.24 132.236 391.611 190.725 401.319 249.137C401.945 252.778 403.293 256.322 405.344 259.741C407.415 263.179 409.38 264.942 411.277 264.971C411.942 264.99 412.356 265.905 412.548 267.735C412.828 269.314 412.683 270.142 412.163 270.114C401.29 269.805 390.436 269.478 379.572 269.17C378.753 269.131 378.223 268.351 377.944 266.8C377.771 265.038 378.012 264.142 378.695 264.162C380.159 264.21 381.363 262.784 382.355 259.943C383.414 256.852 383.626 253.51 383.02 249.956C373.196 191.938 363.738 133.825 354.598 75.6535ZM441.653 251.68C442.568 257.063 444.533 260.752 447.538 262.698C450.504 264.653 453.914 265.683 457.67 265.77C463.679 265.924 469.863 266.088 476.142 266.242C482.576 266.377 488.267 265.808 493.256 264.441C498.197 262.823 502.088 260.213 504.977 256.572C507.828 252.893 508.859 247.307 508.05 239.785C507.953 238.293 508.377 237.676 509.331 237.927C510.294 237.927 510.929 238.909 511.237 240.912C512.172 246.816 513.135 252.71 514.098 258.576C514.926 263.574 515.003 267.311 514.339 269.796C513.645 271.992 510.929 273.041 506.249 272.878C477.394 272.03 448.511 271.202 419.618 270.345C418.683 270.325 418 269.487 417.576 267.889C417.277 266.011 417.662 265.134 418.731 265.144C420.744 265.202 422.131 263.622 422.921 260.454C423.797 256.986 423.98 253.77 423.48 250.774C413.675 190.85 404.218 130.849 395.107 70.7609C394.606 67.2841 393.306 63.5473 391.235 59.6178C389.28 55.6402 387.344 53.8873 385.341 54.2341C384.262 54.4171 383.607 53.714 383.386 52.0767C383.097 50.2468 383.511 49.2163 384.551 49.0044C412.924 43.794 441.278 38.5355 469.622 33.3058C472.684 32.7472 475.063 32.7087 476.778 33.1325C478.453 33.3636 479.754 34.4134 480.659 36.33C481.593 38.2273 482.315 41.0781 482.797 44.8342C483.279 48.6384 483.982 53.7044 484.8 60.0512C485.118 62.3241 484.8 63.5184 483.876 63.6821C482.932 63.8362 482.258 62.7672 481.815 60.5231C480.813 53.9548 478.376 49.4763 474.514 47.0493C470.623 44.4008 465.914 42.9561 460.405 42.6383C455.06 42.3205 449.194 42.8983 442.809 44.2852C436.424 45.4409 430.212 46.5485 424.212 47.6079C422.208 47.9835 420.369 48.4458 418.664 48.9852C417.075 49.4956 415.775 50.3528 414.696 51.4988C413.598 52.462 412.837 53.791 412.414 55.5824C411.961 57.3449 411.97 59.7815 412.423 62.8731C415.601 84.8992 418.828 106.925 422.102 128.903C422.931 134.326 423.894 138.573 425.011 141.568C426.167 144.592 427.65 146.74 429.48 148.031C431.435 149.312 433.823 150.053 436.703 150.294C439.669 150.313 443.358 150.13 447.769 149.764C451.092 149.495 454.164 148.869 456.986 147.915C459.894 146.653 462.37 145.084 464.383 143.186C466.472 140.981 467.994 138.38 468.89 135.289C469.882 131.937 470.084 128.181 469.477 123.972C469.237 122.48 469.612 121.68 470.517 121.593C471.606 121.459 472.232 122.171 472.444 123.664C475.015 141.144 477.606 158.596 480.226 176.057C480.524 178.022 480.139 179.062 479.079 179.129C478.136 179.177 477.529 178.185 477.23 176.221C476.537 171.79 475.275 168.256 473.388 165.636C471.625 162.756 469.41 160.551 466.752 159C464.18 157.209 461.301 156.073 458.151 155.572C455.108 155.071 451.92 154.955 448.568 155.206C444.186 155.524 440.604 156.044 437.897 156.756C435.123 157.19 432.985 158.201 431.473 159.771C429.952 161.293 429.056 163.382 428.815 166.031C428.517 168.448 428.7 171.761 429.374 176.009C433.4 201.252 437.502 226.475 441.653 251.68ZM584.221 255.157C580.167 250.611 576.95 245.988 574.61 241.23C572.24 236.463 570.343 231.445 568.831 226.177C567.454 220.639 566.279 214.822 565.354 208.754C564.516 202.398 563.544 195.483 562.446 188.076C561.81 183.81 562.089 181.681 563.264 181.614C564.468 181.575 565.633 183.675 566.799 187.903C571.287 202.744 576.131 215.342 581.322 225.705C586.552 236.106 591.936 244.524 597.493 251.015C603.194 257.526 608.809 262.303 614.366 265.385C620.068 268.495 625.51 270.133 630.71 270.268C637.375 270.479 643.337 268.573 648.595 264.633C653.96 260.608 658.178 255.108 661.289 248.203C664.438 240.903 666.23 232.707 666.721 223.605C667.308 214.215 666.239 204.488 663.523 194.5C661.636 187.364 658.679 181.556 654.586 177.136C650.637 172.657 645.947 169.007 640.524 166.089C635.218 163.18 629.362 160.628 622.928 158.394C616.505 156.217 609.907 154.069 603.185 151.989C596.53 149.62 589.942 146.894 583.432 143.783C576.921 140.682 570.911 136.627 565.431 131.658C560.086 126.679 555.463 120.467 551.505 113.041C547.556 105.365 544.782 95.946 543.222 84.8222C541.7 73.9295 542.211 64.4141 544.676 56.1699C547.18 47.6175 550.888 40.2883 555.868 34.2401C560.808 27.8739 566.693 22.8658 573.444 19.129C580.34 15.0839 587.409 12.2139 594.7 10.5766C599.438 9.4209 604.206 8.84304 608.935 8.80452C613.779 8.79489 618.354 9.25718 622.63 10.2299C627.022 11.1545 631.115 12.9362 634.958 15.527C638.752 17.8095 642.036 20.8529 644.839 24.5994C648.345 29.4631 651.022 34.789 652.891 40.5484C654.749 46.2885 656.136 52.2886 657.061 58.4525C658.091 64.2985 658.708 70.3564 658.92 76.5684C659.131 82.4819 659.218 88.2412 659.16 93.8465C659.324 96.495 658.794 97.8626 657.542 97.9493C656.55 98.0071 655.78 96.755 655.241 94.1643C653.218 79.2747 650.021 66.5329 645.6 56.0736C641.276 45.3735 636.248 36.9271 630.556 30.7247C624.932 24.609 618.98 20.5544 612.739 18.4741C606.431 16.153 600.633 15.6137 595.355 16.8657C589.412 18.2044 583.817 20.8915 578.578 24.8787C573.338 28.9045 568.985 33.9511 565.489 40.0957C562.118 45.8647 559.807 52.5872 558.564 60.1764C557.418 67.4864 557.938 75.4994 560.096 84.2636C561.694 90.6393 564.459 95.4934 568.369 98.9124C572.279 102.322 576.911 105.115 582.237 107.349C587.679 109.285 593.583 110.787 599.92 111.837C606.257 112.916 612.768 114.447 619.413 116.431C626.02 118.117 632.473 120.621 638.81 123.895C645.08 126.929 650.791 131.485 655.982 137.591C661.27 143.398 665.921 151.007 669.928 160.455C673.992 169.604 677.122 181.094 679.347 194.914C681.456 207.878 681.707 219.676 680.05 230.318C678.519 240.912 675.523 250.014 670.939 257.593C666.249 264.759 660.316 270.316 653.208 274.216C646.226 278.078 638.56 279.86 630.258 279.6C622.678 279.321 614.858 277.192 606.902 273.186C599.082 269.247 591.502 263.247 584.221 255.157ZM692.243 137.167C695.643 160.734 700.063 180.709 705.322 197.101C710.783 213.416 716.667 226.745 722.85 237.146C728.966 247.211 735.082 254.453 741.246 258.999C747.458 263.478 753.332 265.568 758.841 265.24C764.013 264.942 768.684 262.688 772.864 258.479C777.169 254.261 780.636 248.415 783.295 240.903C785.943 233.39 787.629 224.395 788.37 213.907C789.256 203.351 788.765 191.601 786.954 178.609C786.56 174.362 786.685 172.214 787.378 172.185C788.168 172.185 788.861 174.294 789.478 178.532C791.76 193.778 792.512 207.358 791.751 219.262C790.971 230.906 789.025 240.748 785.924 248.858C782.929 256.929 778.913 263.247 773.885 267.754C768.935 272.001 763.426 274.342 757.368 274.688C750.414 275.122 742.979 272.858 735.034 267.908C727.155 262.63 719.354 254.444 711.649 243.31C703.81 231.753 696.558 217.258 690.037 199.817C683.758 182.317 678.971 161.379 675.822 136.974C673.877 120.043 673.626 103.4 675.023 87.0759C676.67 70.3468 679.597 55.3416 683.739 42.1664C687.909 29.0682 693.023 18.6859 699.11 10.9715C705.254 3.34373 712.218 -0.229383 720.057 0.0113928C727.984 0.319586 735.602 3.5845 742.892 9.86393C750.328 16.1145 756.636 24.8305 761.817 36.0314C766.787 46.9626 770.206 58.385 772.026 70.3564C774.001 82.3181 775.388 94.8096 776.225 107.937C776.254 109.882 775.965 111.038 775.32 111.336C774.762 111.356 774.222 110.2 773.702 107.946C771.67 97.6603 768.771 86.8062 764.976 75.3934C761.336 63.9229 757.127 53.271 752.408 43.4666C747.689 33.3925 742.671 24.9654 737.403 18.1948C732.241 11.4819 727.049 7.86068 721.829 7.37913C714.712 6.85905 708.866 10.2492 704.282 17.6554C699.611 24.8016 695.96 34.5964 693.35 46.953C690.837 59.3674 689.421 73.6117 689.18 89.5992C689.103 105.23 690.124 121.064 692.243 137.167ZM924.187 233.034C926.248 238.61 928.348 243.089 930.505 246.498C932.759 249.888 934.791 252.479 936.553 254.29C938.422 256.052 940.001 257.343 941.253 258.075C942.457 258.537 943.208 258.778 943.555 258.768C944.345 258.71 944.903 259.731 945.269 261.889C945.712 263.718 945.481 264.701 944.576 264.73C932.267 265.423 919.949 266.126 907.622 266.8C906.735 266.877 906.119 265.934 905.792 264.056C905.416 261.879 905.705 260.81 906.581 260.762C906.822 260.752 907.342 260.425 908.132 259.847C908.922 259.25 909.606 258.133 910.087 256.476C910.598 254.829 910.809 252.624 910.694 249.917C910.511 246.932 909.625 243.175 907.949 238.649C896.064 205.017 884.286 171.184 872.671 137.157C867.778 137.205 863.492 137.793 859.765 138.949C856.028 140.056 852.831 142.464 850.134 146.095C847.543 149.735 845.473 154.907 843.912 161.591C842.352 168.304 841.35 177.367 840.975 188.828C840.233 208.764 839.559 228.69 838.914 248.636C838.817 250.842 839.049 252.912 839.588 254.829C840.118 256.746 840.773 258.373 841.572 259.741C842.323 261.07 843.209 262.149 844.095 262.938C845.107 263.43 845.983 263.67 846.763 263.641C847.649 263.574 848.275 264.624 848.651 266.858C848.959 268.756 848.68 269.767 847.784 269.805C840.628 270.219 833.463 270.643 826.316 271.038C825.536 271.105 825.151 270.114 825.17 268.187C825.267 265.943 825.7 264.807 826.471 264.768C826.711 264.749 827.299 264.566 828.252 264.229C829.283 263.603 830.361 262.698 831.536 261.552C832.663 260.078 833.665 258.344 834.589 256.38C835.456 254.059 835.967 251.275 836.082 247.914C838.519 178.754 841.341 109.815 844.596 41.1359C845.039 33.7585 845.395 27.9799 845.723 23.8482C846.166 19.7357 846.831 17.694 847.717 17.7325C849.258 17.7806 852.474 25.5818 857.444 41.0877C879.229 105.722 901.477 169.681 924.187 233.034ZM846.744 56.9307C845.145 89.3777 843.594 121.931 842.188 154.551C842.901 149.523 844.298 145.498 846.407 142.416C848.526 139.315 850.943 136.945 853.697 135.26C856.471 133.594 859.37 132.448 862.375 131.889C865.418 131.292 868.144 131.013 870.59 130.984C862.568 106.367 854.593 81.6825 846.744 56.9307ZM919.082 31.8901C918.447 27.5754 917.262 23.6459 915.452 20.0921C913.699 16.2686 912.244 14.3231 911.031 14.2846C910.472 14.2749 909.991 13.3022 909.654 11.4242C909.345 9.24755 909.528 8.18813 910.174 8.2074C921.105 8.64079 932.007 9.07419 942.929 9.48832C953.34 9.88319 962.355 13.437 969.963 20.0343C977.639 26.4004 983.957 34.4905 988.917 44.3623C993.839 53.9259 997.373 64.6067 999.492 76.395C1001.68 88.1834 1002.4 99.7599 1001.71 111.24C1001.16 122.431 999.059 132.891 995.514 142.599C991.951 152.307 986.885 159.992 980.297 165.617C991.19 181.161 1002.13 196.6 1013.11 211.961C1023.93 226.639 1032.12 236.549 1037.66 241.731C1043.23 246.903 1046.24 249.445 1046.85 249.426C1047.28 249.397 1047.58 250.033 1047.7 251.314C1047.94 252.566 1047.45 253.904 1046.24 255.253C1045.47 256.322 1044.32 257.295 1042.8 258.142C1041.32 258.739 1039.51 259.115 1037.44 259.211C1033.73 259.404 1029.27 257.969 1023.98 254.877C1018.64 251.497 1012.53 244.861 1005.7 234.979C996.737 221.708 989.668 211.056 984.496 203.062C979.305 194.77 975.087 188.548 971.803 184.407C968.644 179.977 965.928 177.126 963.713 175.855C961.575 174.294 959.003 173.562 956.008 173.62C959.668 195.483 963.395 217.316 967.103 239.111C967.844 243.33 969.193 247.413 971.109 251.304C973.035 255.176 974.779 257.083 976.3 257.006C976.898 256.977 977.283 257.988 977.543 260.116C977.88 261.956 977.832 262.89 977.389 262.919C968.364 263.43 959.311 263.921 950.287 264.431C949.594 264.45 949.093 263.545 948.794 261.696C948.525 259.529 948.688 258.479 949.237 258.441C950.48 258.373 951.385 256.572 952.001 253.067C952.714 249.262 952.695 245.265 951.963 241.028C940.511 171.578 929.561 101.859 919.082 31.8901ZM955.102 168.025C963.742 167.88 970.531 164.037 975.482 156.583C980.548 149.129 983.957 139.912 985.662 128.865C987.501 117.857 987.848 105.895 986.702 93.0664C985.633 79.9104 983.273 67.8234 979.623 56.6996C976.069 45.2772 971.215 35.7618 965.109 28.2207C959.032 20.3329 951.953 16.2108 943.844 15.893C942.418 15.8544 940.993 15.787 939.558 15.7389C938.133 15.6811 936.89 16.2011 935.84 17.222C934.906 18.2526 934.222 20.1017 933.847 22.7502C933.529 25.1098 933.712 28.7407 934.415 33.5755C941.089 78.5235 947.976 123.346 955.102 168.025ZM1011.9 25.1195C1011.22 20.4099 1011.16 16.8849 1011.7 14.5639C1012.21 12.002 1013.86 10.75 1016.71 10.8848C1045.83 12.1176 1074.89 13.4178 1103.86 14.7469C1105.62 14.8335 1107.16 15.7966 1108.58 17.7132C1109.96 19.2831 1110.99 23.0681 1111.72 29.0393C1113.16 40.6736 1114.62 52.2308 1116.08 63.788C1116.37 65.8298 1116.14 66.8314 1115.41 66.7833C1114.67 66.7544 1114.13 65.695 1113.75 63.6725C1112.37 55.698 1110.25 48.9563 1107.31 43.4281C1104.48 37.9191 1101.33 33.3829 1097.89 29.8868C1094.5 26.1115 1091.04 23.3666 1087.64 21.6619C1084.18 19.9861 1081.16 19.0519 1078.71 18.9556C1073.7 18.7245 1070.75 21.3152 1069.85 26.6893C1069.12 32.0442 1069.57 40.6543 1071.29 52.5197C1081.15 113.34 1091.98 173.562 1103.66 233.169C1104.49 237.108 1105.92 240.96 1107.88 244.591C1109.94 248.27 1111.72 250.052 1113.25 249.975C1113.82 249.946 1114.25 250.909 1114.55 252.903C1114.94 254.608 1114.87 255.503 1114.47 255.532C1105.47 255.985 1096.51 256.457 1087.52 256.909C1086.88 256.957 1086.37 256.081 1085.98 254.338C1085.7 252.306 1085.84 251.323 1086.37 251.275C1087.6 251.217 1088.48 249.503 1089.05 246.229C1089.66 242.646 1089.55 238.861 1088.71 234.883C1077.15 174.41 1066.38 113.455 1056.35 51.9611C1054.85 41.6078 1052.91 33.4214 1050.52 27.3828C1048.18 21.1033 1044.77 17.8577 1040.18 17.6843C1037.98 17.588 1035.55 18.2718 1032.78 19.7454C1030.1 21.1804 1027.62 23.5496 1025.38 26.8338C1023.14 30.118 1021.4 34.4712 1020.12 39.8742C1018.98 45.2868 1018.8 52.0382 1019.59 60.109C1019.81 62.4493 1019.58 63.5954 1018.8 63.5858C1018.06 63.5569 1017.47 62.3626 1017.11 60.0319C1015.37 48.4169 1013.62 36.773 1011.9 25.1195ZM1173.25 231.3C1174.3 234.989 1175.89 238.591 1178.08 242.029C1180.25 245.468 1182.11 247.182 1183.6 247.124C1184.13 247.115 1184.62 248.03 1185.06 249.888C1185.53 251.477 1185.58 252.286 1185.14 252.325C1176.37 252.662 1167.53 253.009 1158.69 253.365C1158.05 253.413 1157.48 252.575 1157.08 250.928C1156.7 249.002 1156.77 248.049 1157.32 248.03C1158.76 247.981 1159.66 246.373 1160.07 243.262C1160.45 240.142 1160.04 236.222 1158.82 231.483C1144.85 169.691 1133.16 106.28 1123.74 41.3189C1123.16 36.1085 1122.09 31.7938 1120.52 28.3748C1118.96 24.9269 1117.5 23.1836 1116.07 23.0777C1115.55 23.0681 1115.11 22.1435 1114.81 20.3425C1114.56 18.2333 1114.78 17.2124 1115.44 17.2702C1124.16 17.7325 1132.83 18.2429 1141.49 18.7341C1141.9 18.7726 1142.21 19.8417 1142.41 21.9605C1142.64 23.7904 1142.51 24.6957 1142 24.6476C1140.52 24.532 1139.37 26.4293 1138.58 30.301C1137.75 33.8452 1137.58 37.8613 1137.99 42.3012C1142.78 83.3775 1148.66 123.577 1155.71 162.93C1155.08 160.021 1155.49 155.707 1156.95 150.034C1158.45 144.342 1160.62 138.823 1163.49 133.517C1166.22 128.316 1169.37 124.069 1172.78 120.939C1175.88 118.059 1178.64 117.722 1180.89 120.158C1181.5 96.6587 1182.62 72.7834 1184.21 48.5229C1184.58 42.725 1184.36 37.9287 1183.49 34.0378C1182.63 30.2047 1181.52 28.2014 1180.22 28.0473C1179.74 27.9799 1179.46 26.9879 1179.4 25.0328C1179.4 22.7695 1179.75 21.7005 1180.33 21.7486C1188.43 22.6925 1196.21 23.8193 1203.68 25.1387C1204.02 25.235 1203.94 26.5545 1203.47 29.0778C1203.14 31.293 1202.74 32.3235 1202.39 32.1886C1201.29 31.813 1199.92 33.8548 1198.28 38.2466C1196.74 42.2531 1195.53 46.8567 1194.72 52.1441C1187.1 127.497 1198.98 188.876 1230.31 236.28C1232.61 238.967 1235.24 241.74 1238.24 244.505C1241.27 247.23 1243.39 248.723 1244.48 248.993C1244.82 249.108 1245.58 249.773 1246.76 251.083C1247.84 252.209 1248.21 252.739 1247.89 252.681C1240.43 252.036 1232.61 251.632 1224.48 251.497C1223.88 251.487 1223.21 250.736 1222.56 249.31C1221.85 247.654 1221.77 246.845 1222.25 246.835C1223.57 246.903 1224.07 245.603 1223.77 243.05C1223.4 240.575 1222.08 237.407 1219.85 233.535C1202.27 201.021 1189.36 165.212 1181.06 126.168C1180.26 125.118 1179.14 124.752 1177.71 125.061C1176.09 125.523 1174.29 126.688 1172.3 128.547C1170.24 130.541 1168.22 133.372 1166.22 137.022C1164.18 140.48 1162.44 144.679 1161.05 149.572C1159.73 154.493 1158.93 159.992 1158.7 166.021C1158.53 172.05 1159.28 178.522 1160.95 185.399C1164.93 200.751 1169.04 216.064 1173.25 231.3Z" fill="#F6F6F6"/>
</svg>
