<svg width="306" height="181" viewBox="0 0 306 181" fill="none" xmlns="http://www.w3.org/2000/svg">
<path d="M78.51 70.101C75.34 70.611 72.57 70.291 70.2 69.151C67.84 67.961 65.89 66.251 64.33 63.991C62.78 61.751 61.62 59.101 60.83 56.051C60.08 53.001 59.69 49.791 59.64 46.421C59.58 43.041 59.88 39.641 60.54 36.211C61.18 32.781 62.19 29.561 63.57 26.561C64.93 23.541 66.65 20.921 68.74 18.701C70.86 16.421 73.38 14.831 76.32 13.971C79.29 13.091 81.95 13.191 84.28 14.241C86.61 15.271 88.62 16.971 90.3 19.331C92.02 21.711 93.4 24.571 94.4 27.921C95.4 31.271 95.99 34.791 96.2 38.481C96.43 42.161 96.25 45.791 95.67 49.371C95.07 52.931 94.04 56.171 92.59 59.091C91.11 61.991 89.18 64.441 86.81 66.451C84.46 68.381 81.69 69.601 78.51 70.101ZM76.4 15.321C74.32 15.931 72.52 17.231 71.01 19.231C69.53 21.201 68.32 23.591 67.37 26.391C66.44 29.171 65.77 32.221 65.35 35.531C64.95 38.751 64.79 41.991 64.87 45.251C64.97 48.491 65.31 51.601 65.87 54.631C66.45 57.581 67.3 60.171 68.4 62.401C69.54 64.641 70.94 66.351 72.61 67.561C74.33 68.751 76.29 69.171 78.49 68.811C80.96 68.421 83.06 67.331 84.79 65.551C86.5 63.751 87.86 61.501 88.87 58.791C89.9 56.081 90.58 53.071 90.91 49.761C91.21 46.381 91.23 42.971 90.95 39.551C90.66 36.111 90.11 32.821 89.27 29.681C88.47 26.461 87.43 23.681 86.14 21.351C84.89 19.031 83.43 17.301 81.77 16.171C80.15 15.031 78.36 14.761 76.4 15.321ZM107.67 60.461C107.78 62.151 108.23 63.221 109.02 63.671C109.86 64.051 110.8 64.201 111.83 64.091C113.18 63.951 114.65 63.831 116.23 63.751C117.85 63.611 119.47 63.431 121.09 63.261C122.76 63.071 124.35 62.851 125.88 62.581C127.41 62.311 128.75 61.971 129.89 61.551C131.07 61.081 131.99 60.491 132.65 59.801C133.35 59.041 133.66 58.111 133.6 57.001C133.57 56.681 133.73 56.531 134.09 56.531C134.5 56.521 134.72 56.661 134.75 56.981C134.863 58.0544 134.977 59.1277 135.09 60.201C135.18 61.121 135.21 61.851 135.17 62.401C135.17 62.881 135.05 63.251 134.81 63.501C134.6 63.741 134.28 63.901 133.82 63.981C133.42 64.041 132.85 64.101 132.12 64.121C121.207 64.8077 110.347 65.761 99.54 66.981C99.27 67.021 99.13 66.821 99.11 66.421C99.13 65.931 99.26 65.691 99.48 65.661C99.96 65.591 100.44 65.141 100.89 64.311C101.38 63.401 101.6 62.481 101.55 61.531C100.57 45.691 99.46 29.621 98.22 13.321C98.14 12.311 97.82 11.461 97.26 10.791C96.73 10.031 96.24 9.73103 95.79 9.86103C95.59 9.91103 95.45 9.72103 95.37 9.29103C95.33 8.80103 95.43 8.51103 95.67 8.44103C98.99 7.49437 102.31 6.5577 105.63 5.63103C105.8 5.58103 105.9 5.82103 105.95 6.33103C106.04 6.77103 105.97 7.03103 105.77 7.09103C105.2 7.24103 104.72 7.87103 104.36 8.94103C103.99 9.96103 103.85 11.011 103.95 12.111C105.31 28.5044 106.55 44.621 107.67 60.461ZM145.53 58.491C145.74 60.201 146.26 61.341 147.11 61.911C147.99 62.411 148.97 62.691 150.03 62.731C151.41 62.791 152.92 62.891 154.54 63.041C156.21 63.131 157.87 63.201 159.54 63.271C161.25 63.341 162.88 63.361 164.44 63.321C166.01 63.281 167.37 63.151 168.53 62.921C169.72 62.641 170.65 62.231 171.3 61.681C171.98 61.071 172.26 60.251 172.14 59.221C172.1 58.921 172.26 58.801 172.63 58.851C173.05 58.901 173.28 59.061 173.33 59.361C173.497 60.3677 173.66 61.3744 173.82 62.381C173.96 63.241 174.02 63.931 174.01 64.431C174.04 64.881 173.93 65.211 173.69 65.411C173.49 65.601 173.16 65.721 172.7 65.731C172.28 65.731 171.7 65.711 170.95 65.641C159.737 64.781 148.59 64.2344 137.51 64.001C137.23 64.001 137.07 63.781 137.03 63.371C137.03 62.881 137.14 62.641 137.36 62.641C137.86 62.631 138.33 62.221 138.75 61.441C139.2 60.581 139.38 59.661 139.27 58.691C137.383 42.051 135.35 24.6144 133.17 6.38103C133.03 5.19103 132.64 4.12103 132.02 3.18103C131.43 2.14103 130.9 1.66103 130.44 1.69103C130.23 1.71103 130.08 1.45103 129.97 0.931035C129.9 0.341035 129.99 0.0310345 130.24 0.00103448C133.667 -0.0189655 137.123 0.251036 140.61 0.811036C140.79 0.851036 140.91 1.16103 140.99 1.74103C141.1 2.26103 141.05 2.51103 140.83 2.46103C140.23 2.34103 139.75 2.78103 139.42 3.79103C139.08 4.75103 138.98 5.85103 139.14 7.10103C141.407 24.9944 143.537 42.1244 145.53 58.491ZM170.41 15.661C170.24 14.691 169.82 13.721 169.15 12.761C168.52 11.731 167.96 11.141 167.47 10.971C167.26 10.891 167.08 10.621 166.96 10.171C166.88 9.69103 166.97 9.49103 167.24 9.59103C170.82 10.8977 174.403 12.211 177.99 13.531C178.17 13.601 178.3 13.861 178.39 14.321C178.51 14.751 178.46 14.921 178.24 14.841C177.62 14.621 177.15 14.851 176.82 15.541C176.49 16.191 176.41 17.011 176.6 18.011C179.433 32.931 182.213 47.6577 184.94 62.191C185.11 63.081 185.53 63.981 186.2 64.881C186.87 65.771 187.55 66.251 188.21 66.341C188.44 66.361 188.59 66.591 188.62 67.031C188.69 67.401 188.63 67.591 188.44 67.571C184.587 67.1244 180.747 66.6877 176.92 66.261C176.63 66.221 176.46 66.001 176.39 65.611C176.37 65.161 176.47 64.951 176.71 64.981C177.22 65.041 177.68 64.721 178.08 64.051C178.51 63.321 178.64 62.501 178.49 61.601C175.857 46.5277 173.163 31.2144 170.41 15.661ZM199.25 64.591C199.51 65.801 200.17 66.671 201.22 67.221C202.27 67.751 203.48 68.091 204.84 68.251C207.03 68.491 209.27 68.741 211.57 68.981C213.92 69.211 216.03 69.261 217.88 69.141C219.72 68.951 221.2 68.561 222.29 67.941C223.37 67.321 223.79 66.311 223.52 64.911C223.49 64.631 223.65 64.531 224.01 64.611C224.36 64.641 224.59 64.841 224.7 65.211C225.027 66.3177 225.353 67.4277 225.68 68.541C225.96 69.481 225.96 70.181 225.7 70.641C225.42 71.051 224.39 71.201 222.64 71.081C212.007 70.141 201.493 69.0744 191.1 67.881C190.76 67.841 190.54 67.621 190.42 67.241C190.33 66.801 190.49 66.611 190.86 66.661C191.58 66.751 192.1 66.441 192.43 65.741C192.8 65.001 192.91 64.261 192.77 63.571C189.877 49.4244 186.933 35.1277 183.94 20.681C183.76 19.831 183.33 18.811 182.63 17.601C181.98 16.431 181.33 15.721 180.66 15.481C180.31 15.351 180.09 15.081 180.01 14.671C179.92 14.221 180.06 14.051 180.41 14.181C189.837 17.6677 199.273 21.1477 208.72 24.621C209.74 24.991 210.55 25.351 211.12 25.691C211.69 25.991 212.14 26.381 212.48 26.861C212.81 27.321 213.09 27.931 213.3 28.661C213.52 29.391 213.8 30.361 214.16 31.581C214.29 32.011 214.2 32.181 213.88 32.081C213.56 31.971 213.32 31.701 213.15 31.241C212.72 29.951 211.85 28.821 210.52 27.831C209.17 26.771 207.58 25.801 205.72 24.911C203.91 24.031 201.94 23.231 199.82 22.511C197.68 21.741 195.61 20.991 193.61 20.261C192.94 20.021 192.33 19.821 191.76 19.671C191.24 19.521 190.8 19.491 190.45 19.571C190.08 19.591 189.83 19.751 189.69 20.061C189.56 20.351 189.56 20.871 189.72 21.591C190.84 26.6777 191.963 31.7444 193.09 36.791C193.37 38.031 193.71 39.031 194.09 39.801C194.48 40.541 194.99 41.161 195.61 41.611C196.29 42.081 197.12 42.471 198.12 42.811C199.15 43.101 200.43 43.431 201.96 43.791C203.13 44.061 204.2 44.241 205.18 44.321C206.2 44.361 207.06 44.301 207.76 44.141C208.49 43.931 209 43.591 209.3 43.111C209.63 42.581 209.68 41.911 209.45 41.071C209.36 40.761 209.48 40.661 209.81 40.751C210.18 40.841 210.4 41.031 210.49 41.331C211.477 44.7844 212.46 48.231 213.44 51.671C213.55 52.061 213.41 52.221 213.03 52.151C212.7 52.091 212.48 51.861 212.37 51.481C212.12 50.591 211.66 49.831 210.99 49.191C210.35 48.501 209.57 47.881 208.63 47.361C207.73 46.791 206.71 46.311 205.6 45.921C204.53 45.541 203.42 45.221 202.25 44.951C200.72 44.611 199.47 44.361 198.53 44.251C197.56 44.081 196.82 44.091 196.29 44.271C195.76 44.451 195.44 44.811 195.35 45.351C195.24 45.831 195.29 46.561 195.5 47.521C196.767 53.221 198.017 58.911 199.25 64.591ZM2.82 177.401C1.73 176.571 1 175.661 0.6 174.661C0.21 173.661 0.01 172.561 0 171.381C0.04 170.131 0.21 168.791 0.48 167.391C0.81 165.921 1.15 164.321 1.49 162.621C1.68 161.631 1.99 161.131 2.41 161.081C2.83 161.031 3.04 161.481 3.03 162.441C3.2 165.741 3.73 168.491 4.63 170.661C5.57 172.791 6.79 174.431 8.3 175.581C9.87 176.691 11.6 177.391 13.49 177.701C15.42 177.981 17.41 177.951 19.44 177.591C22.05 177.141 24.57 176.281 27 175.021C29.47 173.761 31.62 172.271 33.46 170.591C35.36 168.821 36.8 166.981 37.77 165.061C38.82 163.071 39.2 161.131 38.92 159.241C38.75 157.881 38.03 156.851 36.76 156.171C35.55 155.461 34.02 154.941 32.15 154.601C30.34 154.241 28.32 153.981 26.08 153.781C23.85 153.581 21.59 153.361 19.32 153.141C17.11 152.841 14.98 152.421 12.95 151.901C10.93 151.351 9.21 150.561 7.78 149.511C6.41 148.431 5.41 147.051 4.78 145.361C4.17 143.601 4.1 141.421 4.59 138.851C5.05 136.331 6.01 134.161 7.49 132.341C8.96 130.461 10.7 128.911 12.71 127.691C14.71 126.411 16.89 125.461 19.27 124.811C21.7 124.071 24.13 123.591 26.56 123.361C28.16 123.171 29.73 123.101 31.28 123.131C32.88 123.151 34.36 123.261 35.73 123.451C37.15 123.641 38.45 123.971 39.62 124.461C40.81 124.881 41.81 125.431 42.62 126.131C43.64 127.011 44.35 127.971 44.77 129.041C45.18 130.101 45.41 131.221 45.44 132.381C45.52 133.481 45.44 134.631 45.19 135.841C44.94 136.981 44.64 138.101 44.3 139.211C44.2 139.721 43.9 140.021 43.42 140.081C43.03 140.141 42.82 139.911 42.77 139.421C42.86 136.561 42.37 134.161 41.29 132.241C40.3 130.231 38.97 128.661 37.31 127.501C35.71 126.331 33.94 125.521 31.97 125.101C30.03 124.601 28.16 124.451 26.38 124.661C24.38 124.861 22.42 125.351 20.48 126.131C18.55 126.881 16.8 127.891 15.26 129.161C13.76 130.361 12.51 131.811 11.52 133.471C10.58 135.081 10.08 136.871 10.06 138.851C10.06 140.281 10.56 141.361 11.58 142.121C12.6 142.861 13.91 143.441 15.56 143.881C17.27 144.231 19.19 144.471 21.34 144.581C23.49 144.681 25.7 144.841 27.97 145.081C30.25 145.241 32.47 145.541 34.61 145.991C36.77 146.361 38.65 147.051 40.24 148.051C41.91 148.971 43.2 150.281 44.14 151.961C45.08 153.571 45.47 155.721 45.31 158.381C45.11 160.881 44.21 163.271 42.62 165.561C41.06 167.841 39.02 169.951 36.51 171.871C33.99 173.731 31.15 175.361 27.99 176.751C24.88 178.121 21.69 179.111 18.45 179.691C15.47 180.221 12.6 180.331 9.85 180.021C7.17 179.671 4.82 178.811 2.82 177.401ZM54.87 146.121C54.66 150.571 55.06 154.261 56.04 157.201C57.1 160.101 58.58 162.381 60.45 164.041C62.35 165.641 64.53 166.661 66.96 167.141C69.45 167.601 71.99 167.601 74.57 167.141C76.99 166.711 79.33 165.921 81.6 164.791C83.91 163.651 85.95 162.261 87.74 160.601C89.51 158.941 90.94 157.071 92.02 154.991C93.15 152.881 93.72 150.641 93.76 148.251C93.86 147.461 94.06 147.041 94.37 146.991C94.73 146.941 94.91 147.301 94.92 148.081C94.94 150.871 94.37 153.441 93.2 155.801C92.02 158.111 90.4 160.171 88.37 161.971C86.38 163.771 84.03 165.301 81.35 166.561C78.71 167.761 75.96 168.621 73.12 169.141C69.85 169.721 66.59 169.801 63.37 169.371C60.2 168.871 57.39 167.761 54.94 166.051C52.51 164.251 50.65 161.801 49.34 158.711C48.11 155.571 47.72 151.651 48.15 146.961C48.48 143.711 49.4 140.461 50.92 137.211C52.48 133.901 54.42 130.881 56.76 128.141C59.12 125.391 61.79 123.091 64.78 121.211C67.81 119.321 71.02 118.151 74.41 117.701C77.87 117.251 81.03 117.411 83.91 118.181C86.86 118.951 89.19 120.281 90.89 122.171C92.52 124.001 93.42 126.031 93.58 128.261C93.79 130.461 93.7 132.801 93.31 135.291C93.22 135.661 93.01 135.911 92.71 136.001C92.46 136.041 92.28 135.851 92.18 135.441C91.88 133.581 91.2 131.651 90.16 129.661C89.17 127.651 87.89 125.831 86.34 124.211C84.79 122.511 83.03 121.181 81.06 120.191C79.14 119.181 77.06 118.801 74.81 119.051C71.73 119.401 69.03 120.441 66.66 122.191C64.3 123.871 62.25 125.991 60.53 128.531C58.84 131.071 57.5 133.891 56.52 137.001C55.58 140.041 55.02 143.081 54.87 146.121ZM153.55 151.761C154.17 152.681 154.87 153.421 155.66 154.011C156.49 154.591 157.25 155.061 157.95 155.401C158.7 155.741 159.33 156.001 159.86 156.171C160.37 156.301 160.71 156.371 160.86 156.381C161.21 156.411 161.41 156.601 161.45 156.961C161.53 157.271 161.38 157.411 160.98 157.381C155.333 157.108 149.643 157.138 143.91 157.471C143.48 157.521 143.27 157.381 143.24 157.081C143.2 156.731 143.39 156.541 143.81 156.491C143.91 156.481 144.16 156.411 144.58 156.291C144.98 156.161 145.36 155.961 145.7 155.671C146.03 155.381 146.25 155.011 146.37 154.581C146.47 154.081 146.27 153.481 145.78 152.771C142.28 147.324 138.817 141.734 135.39 136.001C133.15 136.171 131.16 136.421 129.4 136.781C127.63 137.131 126.04 137.711 124.61 138.501C123.21 139.281 121.96 140.351 120.86 141.671C119.73 142.991 118.74 144.731 117.87 146.881C116.27 150.648 114.653 154.438 113.02 158.251C112.83 158.681 112.79 159.061 112.91 159.401C113.03 159.721 113.22 159.981 113.5 160.191C113.77 160.391 114.09 160.541 114.47 160.631C114.89 160.651 115.29 160.641 115.66 160.581C116.08 160.511 116.3 160.661 116.32 161.061C116.34 161.401 116.13 161.611 115.71 161.681C112.323 162.268 108.943 162.854 105.57 163.441C105.21 163.501 105.09 163.341 105.24 162.971C105.44 162.521 105.73 162.271 106.09 162.211C106.2 162.191 106.48 162.111 106.96 161.991C107.48 161.791 108.07 161.541 108.69 161.231C109.31 160.871 109.9 160.471 110.48 160.031C111.04 159.531 111.47 158.961 111.76 158.311C117.227 145.191 122.51 132.078 127.61 118.971C128.15 117.531 128.59 116.401 128.94 115.591C129.33 114.781 129.71 114.361 130.11 114.331C130.79 114.291 131.88 115.701 133.38 118.541C139.993 130.008 146.717 141.081 153.55 151.761ZM127.81 121.921C125.403 128.114 122.96 134.288 120.48 140.441C121.09 139.481 121.97 138.651 123.12 137.981C124.25 137.311 125.5 136.771 126.85 136.341C128.2 135.921 129.58 135.601 130.99 135.381C132.39 135.171 133.66 135.031 134.77 134.951C132.43 130.664 130.11 126.321 127.81 121.921ZM161.52 115.991C161.43 115.151 161.05 114.391 160.39 113.711C159.76 112.971 159.18 112.601 158.64 112.591C158.39 112.591 158.22 112.401 158.14 112.041C158.1 111.611 158.22 111.411 158.51 111.421C163.397 111.521 168.29 111.658 173.19 111.831C177.88 112.051 181.81 112.871 185 114.301C188.24 115.691 190.78 117.411 192.64 119.461C194.49 121.461 195.64 123.661 196.09 126.031C196.53 128.411 196.31 130.691 195.44 132.911C194.59 135.041 193.1 136.961 190.97 138.661C188.81 140.321 186.09 141.521 182.8 142.251C186.873 145.651 190.95 149.098 195.03 152.591C199.01 156.041 202.09 158.491 204.27 159.881C206.44 161.271 207.65 162.001 207.91 162.031C208.11 162.061 208.19 162.201 208.18 162.461C208.2 162.721 207.89 162.931 207.27 163.101C206.83 163.241 206.25 163.331 205.5 163.381C204.8 163.371 203.97 163.301 203.02 163.151C201.36 162.901 199.44 162.271 197.25 161.291C195.07 160.251 192.74 158.601 190.28 156.311C187.03 153.311 184.47 150.951 182.6 149.231C180.71 147.461 179.15 146.131 177.91 145.251C176.71 144.301 175.65 143.681 174.72 143.371C173.82 143.001 172.71 142.771 171.35 142.671C171.79 146.624 172.223 150.558 172.65 154.471C172.73 155.221 173.08 156.001 173.71 156.781C174.34 157.561 175 158.011 175.71 158.101C175.96 158.141 176.08 158.331 176.08 158.721C176.11 159.051 176.02 159.211 175.82 159.181C171.733 158.628 167.647 158.111 163.56 157.631C163.26 157.601 163.09 157.421 163.05 157.111C163.06 156.751 163.19 156.591 163.45 156.621C164 156.671 164.52 156.431 165.02 155.901C165.56 155.321 165.78 154.671 165.7 153.941C164.347 141.701 162.953 129.051 161.52 115.991ZM171.24 141.661C175.16 141.951 178.44 141.541 181.1 140.401C183.8 139.241 185.83 137.671 187.19 135.661C188.6 133.651 189.34 131.381 189.44 128.881C189.57 126.311 189.05 123.911 187.88 121.661C186.74 119.351 184.93 117.391 182.46 115.801C180.04 114.161 177 113.261 173.35 113.091C172.7 113.071 172.06 113.041 171.41 113.021C170.78 112.991 170.2 113.071 169.69 113.261C169.21 113.451 168.84 113.801 168.56 114.321C168.32 114.771 168.25 115.471 168.36 116.411C169.347 124.971 170.307 133.388 171.24 141.661ZM203.99 116.151C203.86 115.191 203.95 114.481 204.29 114.021C204.62 113.511 205.43 113.291 206.75 113.371C220.33 113.924 234.16 114.101 248.24 113.901C249.09 113.851 249.85 114.001 250.51 114.361C251.15 114.661 251.56 115.461 251.72 116.791C252.027 119.398 252.32 122.018 252.6 124.651C252.65 125.121 252.47 125.371 252.11 125.381C251.73 125.401 251.48 125.161 251.39 124.701C251.03 122.891 250.22 121.401 248.95 120.241C247.72 119.071 246.31 118.141 244.73 117.461C243.19 116.711 241.6 116.191 239.96 115.891C238.33 115.581 236.9 115.421 235.7 115.431C233.28 115.431 231.78 115.991 231.16 117.141C230.58 118.281 230.47 120.121 230.81 122.671C232.317 136.078 233.683 149.518 234.91 162.991C234.99 163.881 235.33 164.801 235.97 165.721C236.6 166.641 237.26 167.151 237.98 167.251C238.23 167.291 238.34 167.521 238.34 167.971C238.37 168.361 238.28 168.551 238.08 168.521C233.98 167.914 229.88 167.304 225.78 166.691C225.47 166.641 225.3 166.421 225.27 166.051C225.27 165.611 225.41 165.421 225.67 165.461C226.22 165.541 226.74 165.261 227.24 164.631C227.78 163.941 228.01 163.161 227.93 162.291C226.65 148.978 225.233 135.688 223.68 122.421C223.39 120.221 222.79 118.491 221.91 117.221C221.05 115.891 219.55 115.181 217.41 115.101C216.38 115.051 215.22 115.161 213.89 115.421C212.57 115.671 211.31 116.111 210.15 116.741C208.98 117.361 207.99 118.211 207.2 119.281C206.44 120.351 206.06 121.701 206.09 123.351C206.09 123.821 205.92 124.051 205.57 124.031C205.22 124.001 205.01 123.751 204.95 123.271C204.637 120.891 204.317 118.518 203.99 116.151ZM267.88 167.031C267.92 168.021 268.26 169.031 268.86 170.031C269.48 171.041 270.14 171.581 270.85 171.671C271.11 171.701 271.22 171.961 271.19 172.461C271.21 172.891 271.12 173.101 270.91 173.081C266.77 172.541 262.633 171.991 258.5 171.431C258.19 171.391 258.03 171.151 258 170.741C258.02 170.261 258.16 170.051 258.41 170.091C259.08 170.181 259.67 169.861 260.18 169.151C260.71 168.441 260.92 167.471 260.85 166.261C259.91 150.394 258.793 134.644 257.5 119.011C257.37 117.821 256.96 116.881 256.26 116.181C255.57 115.481 254.87 115.161 254.15 115.221C253.88 115.241 253.69 115.051 253.58 114.661C253.52 114.191 253.66 113.951 253.99 113.931C258.483 113.464 263.023 112.901 267.61 112.241C267.85 112.201 267.98 112.411 268.03 112.901C268.14 113.311 268.05 113.551 267.75 113.591C266.96 113.721 266.29 114.281 265.75 115.281C265.22 116.201 264.99 117.181 265.09 118.221C265.843 128.181 266.49 138.281 267.03 148.521C267 147.751 267.72 146.551 269.2 144.941C270.75 143.271 272.75 141.551 275.2 139.771C277.7 137.891 280.53 136.111 283.72 134.411C286.96 132.601 290.15 131.351 293.29 130.711C293.317 124.484 293.31 118.324 293.27 112.231C293.24 110.801 292.89 109.741 292.18 109.061C291.47 108.361 290.71 108.151 289.9 108.401C289.6 108.501 289.4 108.311 289.32 107.861C289.29 107.311 289.47 106.991 289.84 106.881C294.94 105.161 300.083 103.348 305.27 101.441C305.53 101.341 305.65 101.591 305.64 102.211C305.7 102.711 305.57 103.031 305.24 103.151C304.35 103.481 303.55 104.331 302.83 105.711C302.13 107.001 301.76 108.281 301.75 109.571C301.257 129.391 300.7 149.261 300.08 169.181C300.05 170.391 300.32 171.571 300.88 172.721C301.44 173.861 302.09 174.451 302.83 174.461C303.1 174.461 303.2 174.761 303.12 175.381C303.11 175.911 303 176.181 302.78 176.171C298.52 175.944 294.283 175.648 290.07 175.281C289.75 175.251 289.6 174.981 289.59 174.511C289.64 173.961 289.8 173.701 290.05 173.731C290.73 173.781 291.36 173.371 291.93 172.511C292.52 171.621 292.8 170.461 292.81 169.031C292.963 156.891 293.12 144.674 293.28 132.381C291.89 132.691 290.24 133.271 288.34 134.081C286.46 134.851 284.51 135.791 282.49 136.881C280.55 137.911 278.62 139.111 276.72 140.481C274.89 141.731 273.24 143.101 271.77 144.601C270.37 146.061 269.27 147.621 268.43 149.311C267.6 150.961 267.23 152.711 267.31 154.571C267.497 158.744 267.687 162.898 267.88 167.031Z" fill="#F6F6F6"/>
</svg>
